<svg xmlns="http://www.w3.org/2000/svg" viewBox="0 0 1288.32 1997.62"><defs><style>.cls-1{fill:#63b450;}.cls-2,.cls-3,.cls-4,.cls-7{fill:none;}.cls-2,.cls-3,.cls-4{stroke:#006a69;}.cls-2{stroke-width:13px;}.cls-3,.cls-7{stroke-width:3px;}.cls-4{stroke-width:4px;}.cls-5{fill:#a7d19c;}.cls-6{fill:#006a69;}.cls-7{stroke:#a7d19c;stroke-miterlimit:10;}</style></defs><g id="Layer_2" data-name="Layer 2"><g id="Mitte"><rect class="cls-1" width="1288.32" height="1997.62"/><path class="cls-2" d="M190,506.77c111.11,43.51,287.65,101.08,398.46,79.13,127.23-25.2,384.4,189,508.81,301.33"/><path class="cls-3" d="M653.55,587.9s102.85,654.61,12.75,639.58c-52-8.66-138.33,90.38-202.11,175.77"/><path class="cls-4" d="M1031.48,1562.29C911,1397.62,714.75,1180,511.17,1165.43"/><path class="cls-5" d="M682.42,1145.74q.09-2.37,0-4.86v-2.47c-1.33-20.15-10.61-44.32-16.35-70-9.27-40.28-28.26-103.23-45.06-141-16.34-38.27-73.61-106.81-129.27-139-32-18.53-95.44-34.76-124.59-37.28-29.6-2.52-60.21.52-86.71,8.58s-48.61,27-64.95,48.61c-16.34,22.16-23.39,51.09-24.73,71.74s1.78,32.73,8.84,41.79c7.07,9.57,19,18.13,27,5.54,7.95-13.09-1.36-99.67,76.42-130.92,26.33-10.58,46.38-11.58,76-5,30,6,76.84,22.23,98.95,41.8,128.74,114,116.48,257.22,134.28,303.14,8.79,22.68,45.5,53.38,62.72,31.22a32.53,32.53,0,0,0,6.68-14.59c.36-1.63.63-3.31.84-5Z"/><path class="cls-5" d="M574.65,1100.58l-.27-.76c-2.2-6.13-5.19-10.93-8.4-13h0c-.16-.11-.33-.21-.49-.3l-.61-.32-.11,0a6.35,6.35,0,0,0-1.14-.38,4.85,4.85,0,0,0-2.59.08l-.25.09-.24.09c-1.86.74-3.68,2.62-5.36,5.89-11,21.15-3.09,34.24,1.33,43.81,2,4.37,5.59,9.15,9.31,10.62l.13.05.22.08c4.3,1.59,8.83-1.5,11.1-15.28,1.91-9.91.54-21.29-2.47-30.21Z"/><path class="cls-5" d="M525.57,744.45c9.09,10.06,26.1,22.92,42.81,33.7,12.35,8.24,24.92,15.06,33.61,18.66,20.32,8.06,32.69,9.57,40.2-5.53s2.65-40.79-8.83-57.41c-11.93-16.62-33.14-25.18-53.9-31.22-4.85-1.51-10.15-3.52-15.46-5-18.55-5-40.19-9.57-51.68-.51C496.86,709.2,509.67,726.82,525.57,744.45Z"/><path class="cls-3" d="M505.33,587.9s-65.15-43.3-14-208.5"/><path class="cls-3" d="M412.94,514.4s14.82-3.27,62.91,15.48"/><rect class="cls-6" x="329.36" y="313.02" width="127.15" height="174.64"/><rect class="cls-5" x="343.15" y="241.02" width="62.81" height="33.7"/><rect class="cls-5" x="263.49" y="290.04" width="41.36" height="72"/><rect class="cls-6" x="739.91" y="1111.15" width="61.28" height="96.51" transform="translate(-173.04 135.88) rotate(-9.06)"/><rect class="cls-5" x="928.34" y="1325.62" width="162.38" height="104.17" transform="translate(1330.98 -299.76) rotate(47.08)"/><rect class="cls-6" x="589.54" y="1334.13" width="186.32" height="122.83" transform="translate(-786.85 891.49) rotate(-45)"/><rect class="cls-5" x="546.65" y="1427.06" width="85.32" height="122.83" transform="translate(-879.9 852.67) rotate(-45)"/><rect class="cls-6" x="416.27" y="1482" width="171.97" height="117.75" transform="translate(-232.15 2985.59) rotate(-135)"/><rect class="cls-5" x="337.33" y="953.73" width="123.65" height="104.17" transform="translate(631.52 -51.06) rotate(34.05)"/><rect class="cls-5" x="309.65" y="1160.09" width="98.57" height="28.71" transform="translate(719.03 0.36) rotate(34.05)"/><rect class="cls-5" x="370.71" y="1168.38" width="42.64" height="41.68" transform="translate(732.98 -15.64) rotate(34.05)"/><path class="cls-7" d="M510.81,1160s39.8-246.69-124.11-241.52c-119.13,3.76-121.42,163.08-111.21,205.72,0,.12,23.74,107.23,123.7,109.9,92.73,2.48,108.38-62.67,108.38-62.67"/><rect class="cls-6" x="598.25" y="1495.96" width="320.09" height="145.69" rx="29.08" transform="translate(-887.21 995.69) rotate(-45)"/></g></g></svg>