<svg xmlns="http://www.w3.org/2000/svg" viewBox="0 0 345.17 55.07"><defs><style>.cls-1{fill:#eeeded;}</style></defs><g id="Layer_2" data-name="Layer 2"><g id="Hinweise"><path class="cls-1" d="M27.68,40.22h.22L41.65.77h14V54.29H44.92V17.76l-.22,0L31.47,54.29H24.19L11,17.64l-.22,0V54.29H0V.77H14.08Z"/><path class="cls-1" d="M98.53,42.75H81.18L77.57,54.29H66.36L84.41.77h11l18,53.52H102.17ZM83.82,34.33h12.1L90,15.48h-.22Z"/><path class="cls-1" d="M141.9,19.74l10-19h12.5L148.55,27.31l16.8,27h-13L142,35,131.71,54.29H119.18l16.28-27L119.58.77H132Z"/><path class="cls-1" d="M214.54,36.58l.08.22q.13,8.56-5.22,13.41t-14.82,4.86q-9.63,0-15.55-6.2t-5.91-16V22.24q0-9.78,5.77-16T194,0q9.78,0,15.29,4.78t5.37,13.45l-.07.22H204.18q0-5.14-2.48-7.66C200,9.11,197.49,8.27,194,8.27a8.66,8.66,0,0,0-7.52,3.88,17.14,17.14,0,0,0-2.7,10V32.86a16.66,16.66,0,0,0,2.85,10.08,9.27,9.27,0,0,0,7.92,3.89q4.81,0,7.19-2.51t2.37-7.74Z"/><path class="cls-1" d="M238.21,54.29H227.48V.77h10.73Z"/><path class="cls-1" d="M296.54,54.29H285.81L264.23,18.2l-.22,0V54.29H253.28V.77H264l21.58,36.06.22,0V.77h10.73Z"/><path class="cls-1" d="M341.42,30.77H321.57V46.06h23.6v8.23H310.84V.77H345.1V9H321.57V22.5h19.85Z"/></g></g></svg>